<svg width="52" height="52" viewBox="0 0 52 52" fill="none" xmlns="http://www.w3.org/2000/svg">
<rect width="52" height="52" rx="26" fill="#E8F1FE"/>
<g clip-path="url(#clip0_3907_27622)">
<path d="M26.0003 14.1816C19.4731 14.1816 14.1821 19.4726 14.1821 25.9998C14.1821 31.8983 18.504 36.7875 24.1543 37.675V29.4153H21.1525V25.9998H24.1543V23.3963C24.1543 20.4346 25.9176 18.799 28.618 18.799C29.9109 18.799 31.2629 19.0295 31.2629 19.0295V21.9367H29.7739C28.3049 21.9367 27.8475 22.8479 27.8475 23.7827V25.9998H31.1247L30.6011 29.4153H27.8475V37.675C33.4966 36.7886 37.8185 31.8971 37.8185 25.9998C37.8185 19.4726 32.5275 14.1816 26.0003 14.1816Z" fill="#1778F2"/>
</g>
<defs>
<clipPath id="clip0_3907_27622">
<rect width="28.3636" height="28.3636" fill="white" transform="translate(11.8184 11.8184)"/>
</clipPath>
</defs>
</svg>
