<svg width="52" height="52" viewBox="0 0 52 52" fill="none" xmlns="http://www.w3.org/2000/svg">
<rect width="52" height="52" rx="26" fill="#E6F3FA"/>
<g clip-path="url(#clip0_3907_27626)">
<path d="M26.0003 37.818C19.4731 37.818 14.1821 32.527 14.1821 25.9998C14.1821 19.4726 19.4731 14.1816 26.0003 14.1816C32.5275 14.1816 37.8185 19.4726 37.8185 25.9998C37.8185 32.527 32.5275 37.818 26.0003 37.818ZM22.3249 27.3825L22.3402 27.3743L23.3684 30.7661C23.5008 31.1336 23.6828 31.1998 23.9038 31.1691C24.1259 31.1395 24.2429 31.0202 24.3883 30.8807L25.7923 29.524L28.8059 31.7553C29.3567 32.059 29.7526 31.9018 29.8897 31.2447L31.8479 22.0005C32.0642 21.1402 31.686 20.7951 31.0183 21.0693L19.5157 25.5129C18.7309 25.8273 18.7357 26.2669 19.3739 26.4619L22.3249 27.3837V27.3825Z" fill="#00B0CB"/>
</g>
<defs>
<clipPath id="clip0_3907_27626">
<rect width="28.3636" height="28.3636" fill="white" transform="translate(11.8184 11.8184)"/>
</clipPath>
</defs>
</svg>
