<svg width="52" height="52" viewBox="0 0 52 52" fill="none" xmlns="http://www.w3.org/2000/svg">
<rect width="52" height="52" rx="26" fill="#E8F7FF"/>
<g clip-path="url(#clip0_3907_27618)">
<path d="M38.0094 18.5029C37.1072 18.902 36.1504 19.1641 35.1707 19.2805C36.2033 18.663 36.9762 17.691 37.3452 16.5458C36.3761 17.1225 35.3137 17.5267 34.2063 17.7454C33.4625 16.9495 32.4766 16.4217 31.4018 16.244C30.3271 16.0662 29.2237 16.2486 28.2633 16.7626C27.3028 17.2767 26.5391 18.0936 26.0909 19.0865C25.6427 20.0793 25.535 21.1925 25.7847 22.2528C23.8194 22.1543 21.8969 21.6436 20.1418 20.7539C18.3868 19.8641 16.8385 18.6152 15.5974 17.0883C15.1581 17.8428 14.9273 18.7005 14.9285 19.5736C14.9285 21.2873 15.8007 22.8012 17.1267 23.6875C16.342 23.6628 15.5745 23.4509 14.8883 23.0694V23.1309C14.8886 24.2722 15.2835 25.3783 16.0061 26.2616C16.7288 27.145 17.7347 27.7512 18.8533 27.9775C18.1249 28.1749 17.361 28.204 16.6197 28.0626C16.9351 29.045 17.5498 29.9041 18.3777 30.5198C19.2057 31.1354 20.2055 31.4767 21.237 31.4958C20.2118 32.301 19.0379 32.8962 17.7825 33.2475C16.527 33.5987 15.2147 33.699 13.9204 33.5427C16.1797 34.9957 18.8097 35.767 21.4959 35.7645C30.5876 35.7645 35.5595 28.2328 35.5595 21.7009C35.5595 21.4882 35.5536 21.2731 35.5441 21.0627C36.5119 20.3633 37.3471 19.4968 38.0106 18.5041L38.0094 18.5029Z" fill="#1CA1F1"/>
</g>
<defs>
<clipPath id="clip0_3907_27618">
<rect width="28.3636" height="28.3636" fill="white" transform="translate(11.8184 11.8184)"/>
</clipPath>
</defs>
</svg>
