<svg width="52" height="52" viewBox="0 0 52 52" fill="none" xmlns="http://www.w3.org/2000/svg">
<rect width="52" height="52" rx="26" fill="#E9FBF0"/>
<g clip-path="url(#clip0_3907_27624)">
<path d="M14.1869 37.818L15.7847 31.9467C14.7319 30.1419 14.1787 28.0893 14.1821 25.9998C14.1821 19.4726 19.4731 14.1816 26.0003 14.1816C32.5275 14.1816 37.8185 19.4726 37.8185 25.9998C37.8185 32.527 32.5275 37.818 26.0003 37.818C23.9118 37.8214 21.86 37.2687 20.0558 36.2166L14.1869 37.818ZM21.7351 20.4547C21.5825 20.4642 21.4334 20.5044 21.2967 20.5729C21.1685 20.6455 21.0515 20.7363 20.9492 20.8424C20.8074 20.9759 20.7271 21.0917 20.6408 21.204C20.204 21.7725 19.969 22.4702 19.9731 23.1871C19.9754 23.7662 20.1267 24.3299 20.3631 24.857C20.8464 25.923 21.6418 27.0516 22.6924 28.0975C22.9453 28.3493 23.1923 28.6022 23.4582 28.8374C24.7622 29.9855 26.3162 30.8134 27.9964 31.2554L28.6689 31.3582C28.8875 31.37 29.1061 31.3535 29.326 31.3428C29.6702 31.3251 30.0062 31.2319 30.3104 31.0698C30.5066 30.9658 30.5988 30.9138 30.7631 30.8098C30.7631 30.8098 30.8139 30.7767 30.9108 30.7035C31.0703 30.5853 31.1684 30.5014 31.3008 30.3631C31.3989 30.2615 31.484 30.1421 31.549 30.0062C31.6411 29.8135 31.7333 29.446 31.7711 29.1399C31.7995 28.9059 31.7912 28.7783 31.7877 28.6991C31.783 28.5726 31.6778 28.4415 31.5631 28.3859L30.8753 28.0775C30.8753 28.0775 29.8471 27.6295 29.2196 27.3435C29.1534 27.3147 29.0825 27.2983 29.0104 27.2951C28.9296 27.2868 28.8479 27.2959 28.7708 27.3218C28.6938 27.3477 28.6231 27.3897 28.5637 27.4452V27.4428C28.5578 27.4428 28.4786 27.5102 27.6241 28.5455C27.5751 28.6114 27.5075 28.6612 27.4301 28.6885C27.3526 28.7159 27.2688 28.7196 27.1892 28.6991C27.1122 28.6785 27.0368 28.6524 26.9635 28.6211C26.817 28.5596 26.7661 28.536 26.6657 28.4923L26.6598 28.4899C25.9837 28.1947 25.3577 27.796 24.8043 27.3081C24.6554 27.1781 24.5171 27.0363 24.3753 26.8992C23.9104 26.4539 23.5052 25.9502 23.1699 25.4006L23.1001 25.2884C23.0501 25.2129 23.0096 25.1315 22.9796 25.0461C22.9347 24.8724 23.0517 24.7329 23.0517 24.7329C23.0517 24.7329 23.3389 24.4185 23.4724 24.2484C23.5836 24.1069 23.6874 23.9598 23.7832 23.8075C23.9227 23.583 23.9664 23.3525 23.8931 23.1741C23.5622 22.3657 23.2195 21.5609 22.8673 20.762C22.7976 20.6036 22.5908 20.4902 22.4029 20.4677C22.3391 20.4606 22.2752 20.4535 22.2114 20.4488C22.0527 20.4409 21.8937 20.4425 21.7351 20.4535V20.4547Z" fill="#70DD9A"/>
</g>
<defs>
<clipPath id="clip0_3907_27624">
<rect width="28.3636" height="28.3636" fill="white" transform="translate(11.8184 11.8184)"/>
</clipPath>
</defs>
</svg>
